<svg width="1061" height="130"><path class="path" d="M0,110.3030303030303L4.1261099650525255,110.3030303030303L8.252219930105051,110.3030303030303L12.378329895157577,110.3030303030303L16.504439860210102,110.3030303030303L20.63054982526263,110.3030303030303L24.756659790315155,110.3030303030303L28.88276975536768,110.3030303030303L33.008879720420204,110.3030303030303L37.13498968547273,110.3030303030303L41.26109965052526,110.3030303030303L45.38720961557778,110.3030303030303L49.51331958063031,110.3030303030303L53.63942954568283,110.3030303030303L57.76553951073536,110.3030303030303L61.89164947578789,110.3030303030303L66.01775944084041,110.3030303030303L70.14386940589294,110.3030303030303L74.26997937094546,110.3030303030303L78.39608933599798,110.3030303030303L82.52219930105052,110.3030303030303L86.64830926610304,110.3030303030303L90.77441923115556,110.3030303030303L94.9005291962081,110.3030303030303L99.02663916126062,110.3030303030303L103.15274912631314,110.3030303030303L107.27885909136566,110.3030303030303L111.4049690564182,110.3030303030303L115.53107902147072,110.3030303030303L119.65718898652324,110.3030303030303L123.78329895157577,110.3030303030303L127.9094089166283,110.3030303030303L132.03551888168082,110.3030303030303L136.16162884673335,110.3030303030303L140.28773881178589,110.3030303030303L144.4138487768384,110.3030303030303L148.53995874189093,110.3030303030303L152.66606870694346,110.3030303030303L156.79217867199597,110.3030303030303L160.9182886370485,110.3030303030303L165.04439860210104,110.3030303030303L169.17050856715355,110.3030303030303L173.29661853220608,110.3030303030303L177.42272849725862,110.3030303030303L181.54883846231112,110.3030303030303L185.67494842736366,110.3030303030303L189.8010583924162,110.3030303030303L193.9271683574687,110.3030303030303L198.05327832252124,110.3030303030303L202.17938828757374,110.3030303030303L206.30549825262628,110.3030303030303L210.43160821767881,110.3030303030303L214.55771818273132,110.3030303030303L218.68382814778386,110.3030303030303L222.8099381128364,110.3030303030303L226.9360480778889,110.3030303030303L231.06215804294143,110.3030303030303L235.18826800799397,110.3030303030303L239.31437797304648,110.3030303030303L243.440487938099,110.3030303030303L247.56659790315155,110.3030303030303L251.69270786820405,110.3030303030303L255.8188178332566,110.3030303030303L259.9449277983091,110.3030303030303L264.07103776336163,110.3030303030303L268.19714772841417,110.3030303030303L272.3232576934667,110.3030303030303L276.44936765851924,110.3030303030303L280.57547762357177,110.3030303030303L284.70158758862425,110.3030303030303L288.8276975536768,110.3030303030303L292.9538075187293,110.3030303030303L297.07991748378186,110.3030303030303L301.20602744883433,110.3030303030303L305.3321374138869,110.3030303030303L309.4582473789394,110.3030303030303L313.58435734399194,110.3030303030303L317.7104673090445,110.3030303030303L321.836577274097,110.3030303030303L325.9626872391495,110.3030303030303L330.0887972042021,110.3030303030303L334.21490716925456,110.3030303030303L338.3410171343071,110.3030303030303L342.46712709935963,110.3030303030303L346.59323706441216,110.3030303030303L350.71934702946464,110.3030303030303L354.84545699451724,110.3030303030303L358.9715669595697,110.3030303030303L363.09767692462225,110.3030303030303L367.2237868896748,110.3030303030303L371.3498968547273,110.3030303030303L375.4760068197798,110.3030303030303L379.6021167848324,110.3030303030303L383.72822674988487,110.3030303030303L387.8543367149374,110.3030303030303L391.9804466799899,110.3030303030303L396.1065566450425,110.3030303030303L400.23266661009495,110.3030303030303L404.3587765751475,110.3030303030303L408.4848865402,110.3030303030303L412.61099650525256,110.3030303030303L416.73710647030504,110.3030303030303L420.86321643535763,110.3030303030303L424.98932640041016,110.3030303030303L429.11543636546264,110.3030303030303L433.24154633051523,110.3030303030303L437.3676562955677,110.3030303030303L441.49376626062025,110.3030303030303L445.6198762256728,110.3030303030303L449.7459861907253,110.3030303030303L453.8720961557778,110.3030303030303L457.9982061208304,110.3030303030303L462.12431608588287,110.3030303030303L466.2504260509354,110.3030303030303L470.37653601598794,110.3030303030303L474.5026459810405,110.3030303030303L478.62875594609295,110.3030303030303L482.75486591114554,110.10452216801423L486.880975876198,110.09801370457107L491.00708584125056,110.10132042390107L495.1331958063031,110.09459676126343L499.2593057713556,110.08740939775421L503.3854157364081,109.84826621190257L507.5115257014607,109.84826621190257L511.6376356665132,109.82202982202982L515.7637456315657,109.81259844004941L519.8898555966182,109.79258081298897L524.0159655616708,109.79258081298897L528.1420755267233,109.79258081298897L532.2681854917759,109.78194644861311L536.3942954568283,109.7708595580936L540.5204054218808,109.75929062885585L544.6465153869334,109.7472075249853L548.7726253519859,109.7472075249853L552.8987353170385,109.73457518912063L557.024845282091,109.3879562172245L561.1509552471435,109.34102934102934L565.277065212196,109.66169632836299L569.4031751772485,109.66169632836299L573.529285142301,109.66169632836299L577.6553951073536,109.64481911850334L581.7815050724062,109.62702962702963L585.9076150374586,109.60825183047405L590.0337250025111,109.96502996502996L594.1598349675637,109.96502996502996L598.2859449326162,109.96502996502996L602.4120548976687,109.96502996502996L606.5381648627213,109.96502996502996L610.6642748277739,109.96502996502996L614.7903847928263,109.96502996502996L618.9164947578788,109.96502996502996L623.0426047229313,109.96502996502996L627.1687146879839,109.96502996502996L631.2948246530365,109.96502996502996L635.420934618089,109.96502996502996L639.5470445831415,109.96502996502996L643.673154548194,110.3030303030303L647.7992645132465,110.3030303030303L651.925374478299,109.96502996502996L656.0514844433517,109.96502996502996L660.1775944084042,109.96502996502996L664.3037043734566,109.96502996502996L668.4298143385091,109.96502996502996L672.5559243035617,109.96502996502996L676.6820342686142,109.96502996502996L680.8081442336667,109.96502996502996L684.9342541987193,109.96502996502996L689.0603641637719,109.96502996502996L693.1864741288243,109.96502996502996L697.3125840938768,109.96502996502996L701.4386940589293,109.96502996502996L705.5648040239819,109.96502996502996L709.6909139890345,109.96502996502996L713.817023954087,109.96502996502996L717.9431339191394,109.96502996502996L722.069243884192,109.96502996502996L726.1953538492445,109.96502996502996L730.321463814297,109.96502996502996L734.4475737793496,109.96502996502996L738.5736837444022,110.3030303030303L742.6997937094546,110.3030303030303L746.8259036745071,110.3030303030303L750.9520136395596,110.3030303030303L755.0781236046122,110.3030303030303L759.2042335696648,110.3030303030303L763.3303435347173,110.3030303030303L767.4564534997697,110.3030303030303L771.5825634648223,110.3030303030303L775.7086734298748,110.3030303030303L779.8347833949273,110.3030303030303L783.9608933599798,110.3030303030303L788.0870033250325,110.3030303030303L792.213113290085,110.3030303030303L796.3392232551374,110.3030303030303L800.4653332201899,110.3030303030303L804.5914431852425,110.3030303030303L808.717553150295,110.3030303030303L812.8436631153476,110.3030303030303L816.9697730804,110.3030303030303L821.0958830454526,110.3030303030303L825.2219930105051,110.3030303030303L829.3481029755576,110.3030303030303L833.4742129406101,110.3030303030303L837.6003229056628,110.3030303030303L841.7264328707153,110.3030303030303L845.8525428357677,110.3030303030303L849.9786528008203,110.3030303030303L854.1047627658728,110.3030303030303L858.2308727309253,110.3030303030303L862.3569826959779,110.3030303030303L866.4830926610305,110.3030303030303L870.609202626083,110.3030303030303L874.7353125911354,110.3030303030303L878.8614225561879,110.3030303030303L882.9875325212405,110.3030303030303L887.1136424862931,110.3030303030303L891.2397524513456,110.3030303030303L895.365862416398,110.3030303030303L899.4919723814506,110.3030303030303L903.6180823465031,110.3030303030303L907.7441923115556,110.3030303030303L911.8703022766081,110.3030303030303L915.9964122416608,110.3030303030303L920.1225222067133,110.3030303030303L924.2486321717657,110.3030303030303L928.3747421368182,110.3030303030303L932.5008521018708,110.3030303030303L936.6269620669233,110.3030303030303L940.7530720319759,110.3030303030303L944.8791819970284,110.3030303030303L949.005291962081,110.3030303030303L953.1314019271334,110.3030303030303L957.2575118921859,110.3030303030303L961.3836218572384,110.3030303030303L965.5097318222911,110.3030303030303L969.6358417873436,110.3030303030303L973.761951752396,110.3030303030303L977.8880617174485,110.3030303030303L982.0141716825011,110.3030303030303L986.1402816475536,110.3030303030303L990.2663916126062,110.3030303030303L994.3925015776587,110.3030303030303L998.5186115427113,110.3030303030303L1002.6447215077637,110.3030303030303L1006.7708314728162,110.3030303030303L1010.8969414378687,110.3030303030303L1015.0230514029214,110.3030303030303L1019.1491613679739,110.3030303030303L1023.2752713330264,110.3030303030303L1027.4013812980788,110.3030303030303L1031.5274912631314,110.30303030303031L1035.653601228184,110.3030303030303L1039.7797111932364,110.3030303030303L1043.905821158289,110.3030303030303L1048.0319311233416,110.3030303030303L1052.158041088394,110.3030303030303L1056.2841510534465,110.3030303030303L1060.410261018499,110.3030303030303" fill="none" stroke="#cb513a" stroke-width="2" opacity="1"></path><path class="path" d="M0,104.53102453102453L4.1261099650525255,103.54302354302354L8.252219930105051,104.53102453102451L12.378329895157577,103.54302354302354L16.504439860210102,104.53102453102451L20.63054982526263,103.54302354302355L24.756659790315155,104.53102453102451L28.88276975536768,103.54302354302354L33.008879720420204,104.53102453102451L37.13498968547273,103.54302354302354L41.26109965052526,104.53102453102451L45.38720961557778,104.53102453102451L49.51331958063031,103.54302354302355L53.63942954568283,104.53102453102453L57.76553951073536,103.54302354302354L61.89164947578789,104.53102453102451L66.01775944084041,103.54302354302354L70.14386940589294,104.53102453102451L74.26997937094546,103.54302354302354L78.39608933599798,104.53102453102453L82.52219930105052,103.54302354302354L86.64830926610304,104.05002405002404L90.77441923115556,103.00785634118967L94.9005291962081,104.05002405002404L99.02663916126062,103.00785634118967L103.15274912631314,104.05002405002405L107.27885909136566,104.05002405002405L111.4049690564182,103.00785634118967L115.53107902147072,104.05002405002404L119.65718898652324,103.00785634118967L123.78329895157577,104.05002405002405L127.9094089166283,103.00785634118967L132.03551888168082,104.05002405002405L136.16162884673335,103.00785634118967L140.28773881178589,104.05002405002405L144.4138487768384,103.00785634118967L148.53995874189093,104.05002405002404L152.66606870694346,103.00785634118967L156.79217867199597,104.05002405002405L160.9182886370485,103.00785634118967L165.04439860210104,104.05002405002405L169.17050856715355,104.05002405002405L173.29661853220608,103.54302354302354L177.42272849725862,104.53102453102453L181.54883846231112,103.54302354302354L185.67494842736366,104.53102453102451L189.8010583924162,103.54302354302354L193.9271683574687,104.53102453102453L198.05327832252124,103.54302354302355L202.17938828757374,104.53102453102451L206.30549825262628,103.54302354302355L210.43160821767881,104.53102453102451L214.55771818273132,103.54302354302354L218.68382814778386,104.53102453102451L222.8099381128364,103.54302354302354L226.9360480778889,104.53102453102451L231.06215804294143,104.53102453102451L235.18826800799397,103.54302354302354L239.31437797304648,104.53102453102451L243.440487938099,103.54302354302354L247.56659790315155,104.53102453102453L251.69270786820405,103.54302354302355L255.8188178332566,104.53102453102453L259.9449277983091,103.54302354302354L264.07103776336163,104.53102453102453L268.19714772841417,103.54302354302354L272.3232576934667,104.53102453102451L276.44936765851924,103.54302354302354L280.57547762357177,104.53102453102453L284.70158758862425,103.54302354302354L288.8276975536768,104.53102453102453L292.9538075187293,103.54302354302354L297.07991748378186,103.54302354302354L301.20602744883433,103.54302354302354L305.3321374138869,103.54302354302354L309.4582473789394,103.54302354302355L313.58435734399194,103.54302354302354L317.7104673090445,104.53102453102451L321.836577274097,103.54302354302354L325.9626872391495,104.53102453102453L330.0887972042021,103.54302354302354L334.21490716925456,104.53102453102451L338.3410171343071,103.54302354302355L342.46712709935963,104.53102453102451L346.59323706441216,103.54302354302354L350.71934702946464,104.53102453102451L354.84545699451724,104.53102453102451L358.9715669595697,104.53102453102451L363.09767692462225,104.53102453102451L367.2237868896748,103.54302354302354L371.3498968547273,103.54302354302354L375.4760068197798,103.54302354302354L379.6021167848324,104.53102453102451L383.72822674988487,103.54302354302354L387.8543367149374,104.53102453102451L391.9804466799899,103.54302354302355L396.1065566450425,104.53102453102451L400.23266661009495,103.54302354302354L404.3587765751475,104.53102453102451L408.4848865402,103.54302354302354L412.61099650525256,104.53102453102451L416.73710647030504,103.54302354302354L420.86321643535763,104.53102453102451L424.98932640041016,104.53102453102451L429.11543636546264,103.54302354302354L433.24154633051523,104.53102453102453L437.3676562955677,103.54302354302354L441.49376626062025,104.53102453102451L445.6198762256728,103.54302354302354L449.7459861907253,104.53102453102451L453.8720961557778,103.54302354302354L457.9982061208304,104.53102453102451L462.12431608588287,103.54302354302355L466.2504260509354,104.53102453102453L470.37653601598794,103.54302354302354L474.5026459810405,104.53102453102453L478.62875594609295,103.54302354302355L482.75486591114554,104.53102453102451L486.880975876198,104.53102453102451L491.00708584125056,103.54302354302354L495.1331958063031,104.53102453102451L499.2593057713556,103.54302354302354L503.3854157364081,104.53102453102451L507.5115257014607,103.54302354302354L511.6376356665132,104.53102453102453L515.7637456315657,103.54302354302354L519.8898555966182,104.53102453102453L524.0159655616708,103.54302354302354L528.1420755267233,104.53102453102451L532.2681854917759,103.54302354302355L536.3942954568283,104.53102453102453L540.5204054218808,104.53102453102453L544.6465153869334,103.54302354302354L548.7726253519859,104.53102453102453L552.8987353170385,103.54302354302354L557.024845282091,104.53102453102451L561.1509552471435,103.54302354302354L565.277065212196,104.53102453102451L569.4031751772485,103.54302354302354L573.529285142301,104.53102453102451L577.6553951073536,103.54302354302354L581.7815050724062,104.53102453102451L585.9076150374586,103.54302354302354L590.0337250025111,104.53102453102451L594.1598349675637,103.54302354302354L598.2859449326162,104.53102453102451L602.4120548976687,104.53102453102451L606.5381648627213,103.54302354302354L610.6642748277739,104.53102453102451L614.7903847928263,103.54302354302354L618.9164947578788,104.53102453102451L623.0426047229313,103.54302354302354L627.1687146879839,104.53102453102451L631.2948246530365,103.54302354302354L635.420934618089,104.53102453102451L639.5470445831415,103.54302354302354L643.673154548194,104.53102453102453L647.7992645132465,103.54302354302354L651.925374478299,104.53102453102451L656.0514844433517,103.54302354302354L660.1775944084042,104.53102453102453L664.3037043734566,104.53102453102453L668.4298143385091,103.54302354302354L672.5559243035617,104.53102453102451L676.6820342686142,103.54302354302354L680.8081442336667,104.53102453102453L684.9342541987193,103.54302354302354L689.0603641637719,104.53102453102453L693.1864741288243,103.54302354302354L697.3125840938768,104.53102453102453L701.4386940589293,103.54302354302354L705.5648040239819,104.53102453102451L709.6909139890345,103.54302354302354L713.817023954087,104.53102453102453L717.9431339191394,103.54302354302354L722.069243884192,104.53102453102451L726.1953538492445,104.53102453102451L730.321463814297,103.54302354302354L734.4475737793496,104.53102453102451L738.5736837444022,103.54302354302354L742.6997937094546,104.53102453102451L746.8259036745071,103.54302354302354L750.9520136395596,104.53102453102451L755.0781236046122,103.54302354302354L759.2042335696648,104.53102453102453L763.3303435347173,103.54302354302354L767.4564534997697,104.53102453102451L771.5825634648223,103.54302354302355L775.7086734298748,104.53102453102451L779.8347833949273,103.54302354302354L783.9608933599798,104.53102453102451L788.0870033250325,104.53102453102451L792.213113290085,103.54302354302354L796.3392232551374,104.53102453102453L800.4653332201899,103.54302354302355L804.5914431852425,104.53102453102453L808.717553150295,103.54302354302354L812.8436631153476,104.53102453102451L816.9697730804,103.54302354302354L821.0958830454526,104.53102453102451L825.2219930105051,103.54302354302354L829.3481029755576,104.53102453102451L833.4742129406101,103.54302354302354L837.6003229056628,104.53102453102451L841.7264328707153,103.54302354302354L845.8525428357677,104.53102453102451L849.9786528008203,104.53102453102451L854.1047627658728,103.54302354302354L858.2308727309253,104.53102453102451L862.3569826959779,103.54302354302355L866.4830926610305,104.53102453102451L870.609202626083,103.54302354302354L874.7353125911354,104.53102453102453L878.8614225561879,103.54302354302354L882.9875325212405,104.53102453102453L887.1136424862931,103.54302354302354L891.2397524513456,104.05002405002405L895.365862416398,103.00785634118967L899.4919723814506,104.05002405002404L903.6180823465031,103.00785634118967L907.7441923115556,104.05002405002405L911.8703022766081,104.05002405002405L915.9964122416608,103.00785634118967L920.1225222067133,104.05002405002405L924.2486321717657,103.00785634118967L928.3747421368182,104.05002405002405L932.5008521018708,103.00785634118967L936.6269620669233,104.05002405002405L940.7530720319759,103.00785634118967L944.8791819970284,104.05002405002405L949.005291962081,103.00785634118967L953.1314019271334,104.05002405002405L957.2575118921859,103.00785634118967L961.3836218572384,104.05002405002405L965.5097318222911,103.00785634118967L969.6358417873436,104.05002405002405L973.761951752396,104.05002405002405L977.8880617174485,103.54302354302354L982.0141716825011,104.53102453102453L986.1402816475536,103.54302354302354L990.2663916126062,104.53102453102451L994.3925015776587,103.54302354302354L998.5186115427113,104.53102453102453L1002.6447215077637,103.54302354302354L1006.7708314728162,104.53102453102453L1010.8969414378687,103.54302354302354L1015.0230514029214,104.05002405002405L1019.1491613679739,103.00785634118967L1023.2752713330264,104.05002405002405L1027.4013812980788,103.00785634118967L1031.5274912631314,104.05002405002405L1035.653601228184,104.05002405002404L1039.7797111932364,103.00785634118967L1043.905821158289,104.05002405002405L1048.0319311233416,103.00785634118967L1052.158041088394,104.05002405002405L1056.2841510534465,103.00785634118967L1060.410261018499,104.05002405002405" fill="none" stroke="#73c03a" stroke-width="2" opacity="1"></path><path class="path" d="M0,108.64238379506577L4.1261099650525255,108.65453932751092L8.252219930105051,108.65004425667173L12.378329895157577,108.65240238329902L16.504439860210102,108.63705804457094L20.63054982526263,108.62118377743795L24.756659790315155,108.6007746052796L28.88276975536768,108.54416186313665L33.008879720420204,108.54588707301885L37.13498968547273,108.59539395049735L41.26109965052526,108.60258700724845L45.38720961557778,108.61096349318875L49.51331958063031,108.64701656533154L53.63942954568283,108.66221097728567L57.76553951073536,108.70098655337576L61.89164947578789,108.68334998433639L66.01775944084041,108.66806660237154L70.14386940589294,108.68008974024332L74.26997937094546,108.68578156424638L78.39608933599798,108.74463323187136L82.52219930105052,108.69384362311341L86.64830926610304,108.67308790309777L90.77441923115556,108.64743934931565L94.9005291962081,108.64610653588969L99.02663916126062,108.65386907502855L103.15274912631314,108.68598558552445L107.27885909136566,108.68598558552445L111.4049690564182,108.73728763455736L115.53107902147072,108.75830843797749L119.65718898652324,108.6757274593382L123.78329895157577,108.63759122451751L127.9094089166283,108.63375628995503L132.03551888168082,108.62592110162976L136.16162884673335,108.60034905870766L140.28773881178589,108.60443158302131L144.4138487768384,108.5863871195021L148.53995874189093,108.55994563266368L152.66606870694346,108.55716041287765L156.79217867199597,108.55045179299672L160.9182886370485,108.54137818457194L165.04439860210104,108.59238764792829L169.17050856715355,108.60449251870163L173.29661853220608,108.58962503094438L177.42272849725862,108.59501147944114L181.54883846231112,108.58666358867674L185.67494842736366,108.56358088666113L189.8010583924162,108.56554246413916L193.9271683574687,108.57850447849135L198.05327832252124,108.55500826819468L202.17938828757374,108.57434396081933L206.30549825262628,108.58620275723241L210.43160821767881,108.59144100020012L214.55771818273132,108.61002102512649L218.68382814778386,108.65489269099469L222.8099381128364,108.6605871298904L226.9360480778889,108.62288329879559L231.06215804294143,108.63176922582863L235.18826800799397,108.6427115766373L239.31437797304648,108.63587417041825L243.440487938099,108.63176922582863L247.56659790315155,108.6530265689696L251.69270786820405,108.67488653423985L255.8188178332566,108.67040379382598L259.9449277983091,108.67379869674305L264.07103776336163,108.66323141861135L268.19714772841417,108.69831185587017L272.3232576934667,108.70461255041828L276.44936765851924,108.70957700911397L280.57547762357177,108.7385746736096L284.70158758862425,108.73088954823557L288.8276975536768,108.70645433519685L292.9538075187293,108.70724739903514L297.07991748378186,108.69609946828069L301.20602744883433,108.72082418987333L305.3321374138869,108.71928348619038L309.4582473789394,108.7626546709042L313.58435734399194,108.78533444161671L317.7104673090445,108.76232404334206L321.836577274097,108.76153834607582L325.9626872391495,108.76033911248166L330.0887972042021,108.74106543490288L334.21490716925456,108.75296597831522L338.3410171343071,108.73537708579944L342.46712709935963,108.70084838389539L346.59323706441216,108.69492879882075L350.71934702946464,108.66625225281996L354.84545699451724,108.66625225281996L358.9715669595697,108.68020684495791L363.09767692462225,108.66700725978966L367.2237868896748,108.65329004997028L371.3498968547273,108.66931443595871L375.4760068197798,108.67342061179774L379.6021167848324,108.66432063356454L383.72822674988487,108.66784947493818L387.8543367149374,108.648353677756L391.9804466799899,108.66507683575641L396.1065566450425,108.6316797770448L400.23266661009495,108.63366585105716L404.3587765751475,108.63607491255682L408.4848865402,108.6292026958426L412.61099650525256,108.6157271100742L416.73710647030504,108.60711318924096L420.86321643535763,108.60606112180967L424.98932640041016,108.60456705373481L429.11543636546264,108.63268494705244L433.24154633051523,108.61443132742222L437.3676562955677,108.60706598997514L441.49376626062025,108.61405186861974L445.6198762256728,108.63143542456592L449.7459861907253,108.6431413704141L453.8720961557778,108.64318830712007L457.9982061208304,108.62507281729042L462.12431608588287,108.60910534829023L466.2504260509354,108.5662148665536L470.37653601598794,108.57491209718148L474.5026459810405,108.55088268727323L478.62875594609295,108.5612833889633L482.75486591114554,108.53921506296815L486.880975876198,108.53859315638122L491.00708584125056,108.5401779840389L495.1331958063031,108.54180871887421L499.2593057713556,108.50782490159497L503.3854157364081,108.50106474586569L507.5115257014607,108.51930018484299L511.6376356665132,108.53772925428548L515.7637456315657,108.50149860419629L519.8898555966182,108.49285293277164L524.0159655616708,108.46158857162519L528.1420755267233,108.468678485675L532.2681854917759,108.47653744399489L536.3942954568283,108.53210109688622L540.5204054218808,108.53859078805925L544.6465153869334,108.52748653000751L548.7726253519859,108.53196026990729L552.8987353170385,108.53671858574612L557.024845282091,108.54713901820229L561.1509552471435,108.56401425800871L565.277065212196,108.6056348839503L569.4031751772485,108.60834511018102L573.529285142301,108.52252698555884L577.6553951073536,108.49231680175086L581.7815050724062,108.5101903594148L585.9076150374586,108.53272973728927L590.0337250025111,108.55217509183713L594.1598349675637,108.5675034089183L598.2859449326162,108.60220843965558L602.4120548976687,108.6018262850376L606.5381648627213,108.5708558790427L610.6642748277739,108.55557255743663L614.7903847928263,108.53320982228074L618.9164947578788,108.51052903002858L623.0426047229313,108.50290197735926L627.1687146879839,108.54089905689604L631.2948246530365,108.54128909415844L635.420934618089,108.52868558257362L639.5470445831415,108.52281619977454L643.673154548194,108.49739102191312L647.7992645132465,108.51934829494436L651.925374478299,108.56898782396672L656.0514844433517,108.66549716523022L660.1775944084042,108.68259767731686L664.3037043734566,108.6798291577644L668.4298143385091,108.65718587712284L672.5559243035617,108.65366831572744L676.6820342686142,108.65538361731764L680.8081442336667,108.67836603001291L684.9342541987193,108.71632747151418L689.0603641637719,108.75292576298067L693.1864741288243,108.75996657651878L697.3125840938768,108.74662931066678L701.4386940589293,108.78912395122553L705.5648040239819,108.8226850091637L709.6909139890345,108.85510024843558L713.817023954087,108.8584045163927L717.9431339191394,108.86567611831136L722.069243884192,108.8646496042206L726.1953538492445,108.87524711157776L730.321463814297,108.88769551932702L734.4475737793496,108.89716297625546L738.5736837444022,108.88765832848237L742.6997937094546,108.87165688691402L746.8259036745071,108.8872925057395L750.9520136395596,108.89029339819929L755.0781236046122,108.90855103014252L759.2042335696648,108.94195254559612L763.3303435347173,108.9561635584749L767.4564534997697,108.89763899058653L771.5825634648223,108.8687232408126L775.7086734298748,108.82833703976146L779.8347833949273,108.81303856018708L783.9608933599798,108.77753434235267L788.0870033250325,108.78236433950833L792.213113290085,108.74285092839033L796.3392232551374,108.74562895265178L800.4653332201899,108.71566119030352L804.5914431852425,108.69008439314379L808.717553150295,108.62246547166313L812.8436631153476,108.6054361538198L816.9697730804,108.59281497401265L821.0958830454526,108.56635492854949L825.2219930105051,108.57391380730911L829.3481029755576,108.54420921455515L833.4742129406101,108.51674624758706L837.6003229056628,108.44535399738092L841.7264328707153,108.43176078637802L845.8525428357677,108.40160491154425L849.9786528008203,108.42043616996538L854.1047627658728,108.44734971812036L858.2308727309253,108.47488751549788L862.3569826959779,108.47736220741359L866.4830926610305,108.44233884484193L870.609202626083,108.44579234635351L874.7353125911354,108.4645516709015L878.8614225561879,108.45172453628442L882.9875325212405,108.49120511407952L887.1136424862931,108.53609118733507L891.2397524513456,108.51022769755384L895.365862416398,108.46722502327626L899.4919723814506,108.45595926811724L903.6180823465031,108.48748328111519L907.7441923115556,108.46921806995226L911.8703022766081,108.4640190892653L915.9964122416608,108.472997680455L920.1225222067133,108.49869917340186L924.2486321717657,108.5014478443069L928.3747421368182,108.44623205706455L932.5008521018708,108.44000106867486L936.6269620669233,108.48080099418733L940.7530720319759,108.5037230689111L944.8791819970284,108.53215243261033L949.005291962081,108.51284286225105L953.1314019271334,108.5424359099499L957.2575118921859,108.55356820108602L961.3836218572384,108.56138129431737L965.5097318222911,108.5577862509216L969.6358417873436,108.5929669851533L973.761951752396,108.6082101383393L977.8880617174485,108.6338891475328L982.0141716825011,108.63783664083242L986.1402816475536,108.62422259493287L990.2663916126062,108.5864780085859L994.3925015776587,108.58699413229506L998.5186115427113,108.61590664919244L1002.6447215077637,108.58208102146558L1006.7708314728162,108.61168042008364L1010.8969414378687,108.62422910478651L1015.0230514029214,108.62595967084705L1019.1491613679739,108.597968621565L1023.2752713330264,108.58432524088958L1027.4013812980788,108.60677706547004L1031.5274912631314,108.62164793350652L1035.653601228184,108.61557289631223L1039.7797111932364,108.5895790458324L1043.905821158289,108.554000074796L1048.0319311233416,108.51939640245058L1052.158041088394,108.46217777168224L1056.2841510534465,108.46174077814543L1060.410261018499,108.47381774414143" fill="none" stroke="#65b9ac" stroke-width="2" opacity="1"></path><path class="path" d="M0,110.0859708279881L4.1261099650525255,110.07963105349226L8.252219930105051,110.07879209423041L12.378329895157577,110.07860263383988L16.504439860210102,110.07482444920653L20.63054982526263,110.0795097018559L24.756659790315155,110.080328890505L28.88276975536768,110.08097437146971L33.008879720420204,110.07616078660654L37.13498968547273,110.07455248683935L41.26109965052526,110.07697007343435L45.38720961557778,110.07858670553576L49.51331958063031,110.07898846280492L53.63942954568283,110.07981822756079L57.76553951073536,110.0812447802322L61.89164947578789,110.0832934301861L66.01775944084041,110.08411367343827L70.14386940589294,110.08348122624373L74.26997937094546,110.08510810814485L78.39608933599798,110.08689516617669L82.52219930105052,110.08970776480798L86.64830926610304,110.08524418043162L90.77441923115556,110.08455527033227L94.9005291962081,110.08298426674318L99.02663916126062,110.0850704916738L103.15274912631314,110.08436112879923L107.27885909136566,110.08527064192461L111.4049690564182,110.08155428462393L115.53107902147072,110.08522650273494L119.65718898652324,110.08785344260909L123.78329895157577,110.08287881738936L127.9094089166283,110.07823601607913L132.03551888168082,110.07807311085998L136.16162884673335,110.079799434232L140.28773881178589,110.0765072381859L144.4138487768384,110.07664664155836L148.53995874189093,110.07499592629749L152.66606870694346,110.07169766547669L156.79217867199597,110.06793541772966L160.9182886370485,110.06686747488398L165.04439860210104,110.06900256594119L169.17050856715355,110.07011301581653L173.29661853220608,110.07179120385703L177.42272849725862,110.0706724533416L181.54883846231112,110.06768894378057L185.67494842736366,110.067164979178L189.8010583924162,110.06672711163519L193.9271683574687,110.06825350245708L198.05327832252124,110.06304989867881L202.17938828757374,110.06368224519524L206.30549825262628,110.06184397001432L210.43160821767881,110.06051488850986L214.55771818273132,110.05838971394988L218.68382814778386,110.05503431568168L222.8099381128364,110.0522473165594L226.9360480778889,110.04344382191319L231.06215804294143,110.04272730328867L235.18826800799397,110.04730161150057L239.31437797304648,110.04091315256167L243.440487938099,110.04162321304831L247.56659790315155,110.04332174509159L251.69270786820405,110.04281911506983L255.8188178332566,110.0401851950534L259.9449277983091,110.03872985088229L264.07103776336163,110.03323668309146L268.19714772841417,110.03877985504906L272.3232576934667,110.03197858825858L276.44936765851924,110.02566975418605L280.57547762357177,110.0263486104194L284.70158758862425,110.02426929791748L288.8276975536768,110.02688595883652L292.9538075187293,110.0291108056918L297.07991748378186,110.02759036840713L301.20602744883433,110.0343565595979L305.3321374138869,110.03462911092238L309.4582473789394,110.04237870796761L313.58435734399194,110.04209226252404L317.7104673090445,110.04422543975824L321.836577274097,110.04085408819769L325.9626872391495,110.04482684206052L330.0887972042021,110.04028577434815L334.21490716925456,110.04143437020402L338.3410171343071,110.04200475635528L342.46712709935963,110.03998218934083L346.59323706441216,110.03990587674761L350.71934702946464,110.03407106974329L354.84545699451724,110.0347966201523L358.9715669595697,110.04374250042792L363.09767692462225,110.04295543688359L367.2237868896748,110.04433337349697L371.3498968547273,110.03423391467604L375.4760068197798,110.0220445166L379.6021167848324,110.02638826918998L383.72822674988487,110.01789364895797L387.8543367149374,110.01094089035227L391.9804466799899,110.01168349164486L396.1065566450425,110.00740716991992L400.23266661009495,110.00182605221433L404.3587765751475,110.00224339508958L408.4848865402,109.99937962801276L412.61099650525256,109.99508177709089L416.73710647030504,109.98710393383936L420.86321643535763,109.98502714843511L424.98932640041016,109.98242453207743L429.11543636546264,109.98492159432975L433.24154633051523,109.98376937883843L437.3676562955677,109.9854507750668L441.49376626062025,109.98591288158853L445.6198762256728,109.98581654580283L449.7459861907253,109.98739349906053L453.8720961557778,109.99085323606585L457.9982061208304,109.9919635146276L462.12431608588287,109.99551777467106L466.2504260509354,109.99875528705302L470.37653601598794,109.99925823608085L474.5026459810405,110.00319986902382L478.62875594609295,110.00265219796657L482.75486591114554,110.00222147831025L486.880975876198,110.0023650215178L491.00708584125056,110.00344033812837L495.1331958063031,110.00745330124322L499.2593057713556,110.00998889642948L503.3854157364081,110.01030939515739L507.5115257014607,110.01337270066527L511.6376356665132,110.01958688257537L515.7637456315657,110.02128966869365L519.8898555966182,110.02705139242099L524.0159655616708,110.0289461650533L528.1420755267233,110.02998226356604L532.2681854917759,110.03323895064126L536.3942954568283,110.03878659826344L540.5204054218808,110.0461083539806L544.6465153869334,110.05119678749725L548.7726253519859,110.04967156015817L552.8987353170385,110.05351722239139L557.024845282091,110.06161469593336L561.1509552471435,110.06935444700197L565.277065212196,110.07550057715403L569.4031751772485,110.07526114793508L573.529285142301,110.07508955601139L577.6553951073536,110.07949417088194L581.7815050724062,110.08424652955199L585.9076150374586,110.0871190661839L590.0337250025111,110.08890896931281L594.1598349675637,110.09605273594875L598.2859449326162,110.09467617818053L602.4120548976687,110.09708757068003L606.5381648627213,110.09462494838873L610.6642748277739,110.09341899667021L614.7903847928263,110.09405606375688L618.9164947578788,110.08994137068984L623.0426047229313,110.08789102904093L627.1687146879839,110.08955728044691L631.2948246530365,110.08972681869878L635.420934618089,110.08807334516483L639.5470445831415,110.08957068677758L643.673154548194,110.08775442092774L647.7992645132465,110.08929830925956L651.925374478299,110.09213728232892L656.0514844433517,110.09561411026918L660.1775944084042,110.09369186363153L664.3037043734566,110.0955751023173L668.4298143385091,110.09582521156155L672.5559243035617,110.0987055220683L676.6820342686142,110.09740906180377L680.8081442336667,110.10207625855494L684.9342541987193,110.10516198830406L689.0603641637719,110.10783816801313L693.1864741288243,110.1082103733697L697.3125840938768,110.10534407980214L701.4386940589293,110.10562818523927L705.5648040239819,110.11103519142456L709.6909139890345,110.11256278398913L713.817023954087,110.11421602526875L717.9431339191394,110.11390707690539L722.069243884192,110.11044041229218L726.1953538492445,110.1104180279905L730.321463814297,110.10857000241523L734.4475737793496,110.10925034829415L738.5736837444022,110.11373760367131L742.6997937094546,110.11743283055249L746.8259036745071,110.11737422649286L750.9520136395596,110.1180007194002L755.0781236046122,110.1185475000737L759.2042335696648,110.11833482141057L763.3303435347173,110.11638498172893L767.4564534997697,110.1074155980731L771.5825634648223,110.10347687598957L775.7086734298748,110.10371723909908L779.8347833949273,110.1072252904484L783.9608933599798,110.10688715079735L788.0870033250325,110.105059188398L792.213113290085,110.10305455991326L796.3392232551374,110.09939510021559L800.4653332201899,110.098626961189L804.5914431852425,110.10043409085787L808.717553150295,110.10215769100232L812.8436631153476,110.10395362150696L816.9697730804,110.10485636706059L821.0958830454526,110.10324982811885L825.2219930105051,110.09671438079673L829.3481029755576,110.09708598321261L833.4742129406101,110.09696864842589L837.6003229056628,110.0926713865093L841.7264328707153,110.0904643803154L845.8525428357677,110.0917531612571L849.9786528008203,110.09577077338557L854.1047627658728,110.10318602040029L858.2308727309253,110.1013415849997L862.3569826959779,110.09853188808972L866.4830926610305,110.09483544619545L870.609202626083,110.09270866699632L874.7353125911354,110.09371781836008L878.8614225561879,110.09316603093103L882.9875325212405,110.09800841268208L887.1136424862931,110.09859725823816L891.2397524513456,110.0952559957938L895.365862416398,110.093742618522L899.4919723814506,110.0898855151119L903.6180823465031,110.0903631815275L907.7441923115556,110.09101832403576L911.8703022766081,110.09222750566772L915.9964122416608,110.08764690227L920.1225222067133,110.08859313635284L924.2486321717657,110.09155371484441L928.3747421368182,110.09075454893087L932.5008521018708,110.08788326741565L936.6269620669233,110.08814639299626L940.7530720319759,110.08888097709641L944.8791819970284,110.0928834258881L949.005291962081,110.09789249665626L953.1314019271334,110.09799101012324L957.2575118921859,110.09804657601784L961.3836218572384,110.09666985885012L965.5097318222911,110.0952968997707L969.6358417873436,110.09538591771485L973.761951752396,110.09735732489915L977.8880617174485,110.09775257904262L982.0141716825011,110.09825054282601L986.1402816475536,110.09831873563735L990.2663916126062,110.10121390225781L994.3925015776587,110.09883702901332L998.5186115427113,110.09901052744583L1002.6447215077637,110.09817128455255L1006.7708314728162,110.09784993317007L1010.8969414378687,110.0933028849783L1015.0230514029214,110.0948273293406L1019.1491613679739,110.09362224030878L1023.2752713330264,110.09336319930787L1027.4013812980788,110.09178936439413L1031.5274912631314,110.08897372537209L1035.653601228184,110.09046852713483L1039.7797111932364,110.08639751753077L1043.905821158289,110.08511050911966L1048.0319311233416,110.08847051120154L1052.158041088394,110.08372634616701L1056.2841510534465,110.08263759046226L1060.410261018499,110.08857178430767" fill="none" stroke="#4682b4" stroke-width="2" opacity="1"></path><path class="path" d="M0,87.8996213965539L4.1261099650525255,87.95997137460552L8.252219930105051,87.95508485151714L12.378329895157577,87.98838053740015L16.504439860210102,88.1517601544809L20.63054982526263,88.17069974499249L24.756659790315155,88.4996643920697L28.88276975536768,88.64228968804133L33.008879720420204,88.83044279270695L37.13498968547273,89.12709415780456L41.26109965052526,89.38523557571177L45.38720961557778,89.60342339652685L49.51331958063031,89.83864620228258L53.63942954568283,90.05849072147414L57.76553951073536,90.15048443619872L61.89164947578789,90.34328953273952L66.01775944084041,90.44053985230457L70.14386940589294,90.71268701326505L74.26997937094546,90.93661204798973L78.39608933599798,90.86511372225658L82.52219930105052,90.8650960066724L86.64830926610304,90.98194356621322L90.77441923115556,90.90449954086318L94.9005291962081,91.2041742476525L99.02663916126062,91.37866719194024L103.15274912631314,91.57674979664509L107.27885909136566,91.54401154401155L111.4049690564182,91.51057300789921L115.53107902147072,91.41096885777739L119.65718898652324,91.4897352251438L123.78329895157577,91.57674979664507L127.9094089166283,91.47887606220938L132.03551888168082,91.27792617154319L136.16162884673335,91.28346961680295L140.28773881178589,91.25541125541126L144.4138487768384,91.25834120757979L148.53995874189093,91.10187978874848L152.66606870694346,90.94699084648835L156.79217867199597,90.83554285524728L160.9182886370485,90.99763235685566L165.04439860210104,90.9976470879127L169.17050856715355,90.93098660796292L173.29661853220608,90.93167665573867L177.42272849725862,90.79365079365078L181.54883846231112,90.49655364376177L185.67494842736366,90.33169400516337L189.8010583924162,90.36955772550515L193.9271683574687,90.44423657488984L198.05327832252124,90.45811854369786L202.17938828757374,90.20408163265306L206.30549825262628,90.16514349847684L210.43160821767881,90.07079017550222L214.55771818273132,90.34393963686892L218.68382814778386,90.2934102934103L222.8099381128364,90.05520053139101L226.9360480778889,89.90552327450723L231.06215804294143,89.92286177471362L235.18826800799397,89.93983716496807L239.31437797304648,89.94749930920145L243.440487938099,89.99756913735409L247.56659790315155,89.97133144298404L251.69270786820405,89.83864620228258L255.8188178332566,90.05099927690495L259.9449277983091,90.22107890962452L264.07103776336163,90.19102188692831L268.19714772841417,90.27895247548426L272.3232576934667,90.38334835590496L276.44936765851924,90.15445459889905L280.57547762357177,90.15002925830949L284.70158758862425,90.11356454106262L288.8276975536768,90.3588012084744L292.9538075187293,90.61614610001708L297.07991748378186,90.48057510642543L301.20602744883433,90.5752359273486L305.3321374138869,90.61271274037232L309.4582473789394,90.5240176162162L313.58435734399194,90.6377787537208L317.7104673090445,90.67673464921798L321.836577274097,90.55698951640466L325.9626872391495,90.58552153442663L330.0887972042021,90.27528563760448L334.21490716925456,89.96951356663587L338.3410171343071,90.01355546810092L342.46712709935963,89.86221271212811L346.59323706441216,90.00217438573603L350.71934702946464,89.57878100735243L354.84545699451724,89.27842956828464L358.9715669595697,89.39881961779771L363.09767692462225,89.21080025557639L367.2237868896748,89.13873981446001L371.3498968547273,88.51838925867071L375.4760068197798,88.04656736860127L379.6021167848324,88.12826030157031L383.72822674988487,87.9632301854524L387.8543367149374,87.81414816502534L391.9804466799899,87.85920428777571L396.1065566450425,88.0446227235218L400.23266661009495,87.57585051044981L404.3587765751475,87.27177150598564L408.4848865402,86.5278636707208L412.61099650525256,85.90101411613433L416.73710647030504,85.45129605806596L420.86321643535763,86.08269031340436L424.98932640041016,85.62432472975411L429.11543636546264,85.2910966597568L433.24154633051523,86.0925495570043L437.3676562955677,86.96856098889079L441.49376626062025,86.9094304388422L445.6198762256728,86.87222526302985L449.7459861907253,87.07796800519405L453.8720961557778,87.41975851170476L457.9982061208304,87.43850238799733L462.12431608588287,87.2922630217734L466.2504260509354,86.79172679172679L470.37653601598794,86.63995150804674L474.5026459810405,86.38363705017926L478.62875594609295,86.99625270023206L482.75486591114554,87.18267104821727L486.880975876198,87.39363279778985L491.00708584125056,87.59211159211159L495.1331958063031,87.6960076960077L499.2593057713556,87.84893370632942L503.3854157364081,87.32676987299935L507.5115257014607,87.31111023335995L511.6376356665132,87.10485443309871L515.7637456315657,86.86664053786619L519.8898555966182,86.41859658253102L524.0159655616708,86.13887054565022L528.1420755267233,86.79172679172679L532.2681854917759,86.80382938447455L536.3942954568283,86.8542073598218L540.5204054218808,86.86656592168403L544.6465153869334,87.11875864256835L548.7726253519859,87.29576183228158L552.8987353170385,87.20005827439309L557.024845282091,87.37534070867406L561.1509552471435,87.21510557142506L565.277065212196,87.07772686607602L569.4031751772485,87.276086641166L573.529285142301,87.2758165033379L577.6553951073536,86.90468432403918L581.7815050724062,87.09202631882138L585.9076150374586,87.07757850614995L590.0337250025111,87.13297612522418L594.1598349675637,87.47008322765898L598.2859449326162,87.62421657944046L602.4120548976687,87.77381659734601L606.5381648627213,88.06017360846478L610.6642748277739,87.43755967636565L614.7903847928263,87.46596398770312L618.9164947578788,87.55658726673221L623.0426047229313,87.95203459115409L627.1687146879839,87.95183784678879L631.2948246530365,88.10928407135592L635.420934618089,87.84688494655116L639.5470445831415,88.1092616303884L643.673154548194,88.19733214099412L647.7992645132465,87.81027136164917L651.925374478299,87.6818606230371L656.0514844433517,88.10057414898196L660.1775944084042,88.50683707826565L664.3037043734566,88.52997255874955L668.4298143385091,88.69337634043517L672.5559243035617,89.03368056652728L676.6820342686142,89.33971437568559L680.8081442336667,89.55029940537186L684.9342541987193,89.81445662296724L689.0603641637719,89.79686934034243L693.1864741288243,90.05061260222597L697.3125840938768,90.12287375923741L701.4386940589293,90.50184383517717L705.5648040239819,90.55669476722107L709.6909139890345,90.56685251669967L713.817023954087,90.76238576238578L717.9431339191394,90.957971329307L722.069243884192,91.03973684618846L726.1953538492445,91.44781144781146L730.321463814297,91.92298161995132L734.4475737793496,92.02501202501203L738.5736837444022,92.20720917690615L742.6997937094546,92.2906391563108L746.8259036745071,92.48871033043694L750.9520136395596,92.48871033043694L755.0781236046122,92.48871033043694L759.2042335696648,92.36805112774105L763.3303435347173,92.24923781314759L767.4564534997697,92.37075716241844L771.5825634648223,92.20720917690615L775.7086734298748,92.37161531279177L779.8347833949273,92.33142714624196L783.9608933599798,92.33142714624196L788.0870033250325,92.43729815158386L792.213113290085,92.45024433430231L796.3392232551374,92.5266268123411L800.4653332201899,92.63719445537626L804.5914431852425,92.70836443250238L808.717553150295,92.63719445537629L812.8436631153476,92.5640054718069L816.9697730804,92.5640054718069L821.0958830454526,92.63733438246162L825.2219930105051,92.74321822267028L829.3481029755576,92.5640054718069L833.4742129406101,92.48871033043694L837.6003229056628,92.60085767128021L841.7264328707153,92.42471665006875L845.8525428357677,92.60744798159764L849.9786528008203,92.57190298286189L854.1047627658728,92.71200130885587L858.2308727309253,92.67710663683819L862.3569826959779,92.74492002968823L866.4830926610305,92.60744798159764L870.609202626083,92.64251264251264L874.7353125911354,92.77777739591659L878.8614225561879,92.77777739591659L882.9875325212405,92.6728678430183L887.1136424862931,92.63717162133122L891.2397524513456,92.56405228367304L895.365862416398,92.45024433430231L899.4919723814506,92.44891928550076L903.6180823465031,92.26885376945424L907.7441923115556,92.30876770445116L911.8703022766081,92.34796949082663L915.9964122416608,92.22864726514361L920.1225222067133,92.22869545236856L924.2486321717657,92.18770336417396L928.3747421368182,92.33142714624196L932.5008521018708,92.2906391563108L936.6269620669233,92.33142714624196L940.7530720319759,92.33142714624196L944.8791819970284,92.37161531279179L949.005291962081,92.10390812643986L953.1314019271334,91.94313960271408L957.2575118921859,91.67338408717718L961.3836218572384,91.46155031294185L965.5097318222911,91.29403799943525L969.6358417873436,91.03912960667682L973.761951752396,91.20700488592007L977.8880617174485,91.02292768959435L982.0141716825011,91.03504591876684L986.1402816475536,91.08051242259414L990.2663916126062,90.76238576238578L994.3925015776587,90.61124265544154L998.5186115427113,90.72555522817304L1002.6447215077637,90.61407728074394L1006.7708314728162,90.49652438727847L1010.8969414378687,90.38139229094001L1015.0230514029214,90.15787715295104L1019.1491613679739,90.19767048475182L1023.2752713330264,89.9733512055787L1027.4013812980788,89.7153534885515L1031.5274912631314,89.83868509694831L1035.653601228184,89.85945073620405L1039.7797111932364,89.90151681395922L1043.905821158289,89.67395359918724L1048.0319311233416,90.00258623140614L1052.158041088394,89.77429279316071L1056.2841510534465,89.68336090287309L1060.410261018499,89.89846957095749" fill="none" stroke="#96557e" stroke-width="2" opacity="1"></path><path class="path" d="M0,100.70539279841606L4.1261099650525255,100.17911541721065L8.252219930105051,99.04761904761904L12.378329895157577,99.62716596862938L16.504439860210102,99.62716596862938L20.63054982526263,100.17911541721065L24.756659790315155,99.62716596862938L28.88276975536768,99.04761904761904L33.008879720420204,99.62716596862938L37.13498968547273,100.17911541721065L41.26109965052526,99.62716596862938L45.38720961557778,99.62716596862938L49.51331958063031,100.17911541721065L53.63942954568283,100.70539279841606L57.76553951073536,101.6877772433328L61.89164947578789,102.58655450144812L66.01775944084041,102.58655450144812L70.14386940589294,102.14693519041346L74.26997937094546,101.20774848047576L78.39608933599798,101.20774848047576L82.52219930105052,100.70539279841606L86.64830926610304,100.17911541721065L90.77441923115556,100.17911541721065L94.9005291962081,100.70539279841606L99.02663916126062,100.70539279841606L103.15274912631314,100.17911541721065L107.27885909136566,101.20774848047576L111.4049690564182,101.6877772433328L115.53107902147072,101.20774848047576L119.65718898652324,100.70539279841606L123.78329895157577,100.70539279841606L127.9094089166283,101.20774848047576L132.03551888168082,100.70539279841606L136.16162884673335,100.70539279841606L140.28773881178589,101.20774848047576L144.4138487768384,100.17911541721065L148.53995874189093,99.04761904761904L152.66606870694346,99.04761904761904L156.79217867199597,99.62716596862938L160.9182886370485,100.17911541721065L165.04439860210104,100.70539279841606L169.17050856715355,100.70539279841604L173.29661853220608,100.70539279841604L177.42272849725862,100.17911541721065L181.54883846231112,100.17911541721065L185.67494842736366,99.04761904761904L189.8010583924162,97.79701779701779L193.9271683574687,81.12233445566777L198.05327832252124,81.12233445566785L202.17938828757374,72.78499278499275L206.30549825262628,72.78499278499275L210.43160821767881,66.7821067821068L214.55771818273132,66.7821067821068L218.68382814778386,66.7821067821068L222.8099381128364,61.24098124098125L226.9360480778889,60.77922077922077L231.06215804294143,57.77777777777776L235.18826800799397,57.77777777777777L239.31437797304648,60.27898027898028L243.440487938099,53.33119555341778L247.56659790315155,56.11030944364278L251.69270786820405,56.705833848690986L255.8188178332566,51.34611420325706L259.9449277983091,48.57980728948471L264.07103776336163,48.57980728948471L268.19714772841417,52.08538587848932L272.3232576934667,52.77537277537277L276.44936765851924,54.02597402597403L280.57547762357177,54.02597402597403L284.70158758862425,51.68109668109668L288.8276975536768,53.420844388586325L292.9538075187293,56.37085137085136L297.07991748378186,54.025974025974016L301.20602744883433,54.025974025974016L305.3321374138869,54.59442913988369L309.4582473789394,55.12944571768102L313.58435734399194,57.777777777777786L317.7104673090445,57.777777777777786L321.836577274097,57.777777777777786L325.9626872391495,58.715728715728716L330.0887972042021,58.715728715728716L334.21490716925456,58.715728715728716L338.3410171343071,56.37085137085136L342.46712709935963,65.28138528138528L346.59323706441216,65.28138528138528L350.71934702946464,60.68240003723875L354.84545699451724,60.27898027898028L358.9715669595697,62.43518933174105L363.09767692462225,59.84773846842811L367.2237868896748,60.68240003723875L371.3498968547273,59.14207005116096L375.4760068197798,56.868249595522315L379.6021167848324,55.12944571768101L383.72822674988487,52.320608684245045L387.8543367149374,48.57980728948471L391.9804466799899,48.57980728948471L396.1065566450425,39.148131561924664L400.23266661009495,39.148131561924664L404.3587765751475,36.477214541730675L408.4848865402,36.4038654947746L412.61099650525256,30.577200577200575L416.73710647030504,25.887445887445878L420.86321643535763,24.374621793976655L424.98932640041016,20.48712230530413L429.11543636546264,15.939481394026862L433.24154633051523,11.818181818181822L437.3676562955677,13.66566093838822L441.49376626062025,15.939481394026862L445.6198762256728,15.939481394026862L449.7459861907253,17.113066145324215L453.8720961557778,15.257335257335253L457.9982061208304,15.861073792108275L462.12431608588287,19.18779633065349L466.2504260509354,20.836940836940848L470.37653601598794,23.623426382047068L474.5026459810405,29.215658893078235L478.62875594609295,30.57720057720059L482.75486591114554,36.4038654947746L486.880975876198,32.76575276575277L491.00708584125056,31.385778971985857L495.1331958063031,35.266955266955264L499.2593057713556,32.76575276575277L503.3854157364081,37.76815776815777L507.5115257014607,37.76815776815777L511.6376356665132,43.30653473510617L515.7637456315657,45.98639455782314L519.8898555966182,50.55208166319278L524.0159655616708,55.468975468975465L528.1420755267233,55.468975468975465L532.2681854917759,57.77777777777777L536.3942954568283,63.4054834054834L540.5204054218808,63.4054834054834L544.6465153869334,62.99767864985256L548.7726253519859,62.99767864985256L552.8987353170385,72.78499278499275L557.024845282091,76.63299663299664L561.1509552471435,80.48100048100048L565.277065212196,82.40500240500242L569.4031751772485,82.40500240500242L573.529285142301,84.32900432900432L577.6553951073536,86.25300625300625L581.7815050724062,88.86415172129458L585.9076150374586,92.43729815158385L590.0337250025111,92.43729815158385L594.1598349675637,89.45967612634279L598.2859449326162,88.41750841750842L602.4120548976687,89.45967612634277L606.5381648627213,90.1010101010101L610.6642748277739,88.17700817700818L614.7903847928263,88.17700817700818L618.9164947578788,87.37534070867403L623.0426047229313,87.07757850614995L627.1687146879839,87.07757850614995L631.2948246530365,87.07757850614995L635.420934618089,86.25300625300625L639.5470445831415,86.25300625300625L643.673154548194,85.29100529100529L647.7992645132465,83.20666987333654L651.925374478299,83.20666987333654L656.0514844433517,84.32900432900432L660.1775944084042,84.32900432900432L664.3037043734566,83.20666987333654L668.4298143385091,83.20666987333654L672.5559243035617,81.88027460754734L676.6820342686142,83.90144834589277L680.8081442336667,85.29100529100529L684.9342541987193,88.4175084175084L689.0603641637719,88.4175084175084L693.1864741288243,88.4175084175084L697.3125840938768,87.07757850614995L701.4386940589293,85.2910052910053L705.5648040239819,85.29100529100529L709.6909139890345,87.79220779220779L713.817023954087,87.79220779220779L717.9431339191394,85.29100529100529L722.069243884192,81.12233445566777L726.1953538492445,85.29100529100529L730.321463814297,89.4596761263428L734.4475737793496,89.4596761263428L738.5736837444022,97.79701779701776L742.6997937094546,98.4383517716851L746.8259036745071,99.04761904761904L750.9520136395596,99.04761904761904L755.0781236046122,99.04761904761904L759.2042335696648,99.04761904761904L763.3303435347173,99.04761904761904L767.4564534997697,98.4383517716851L771.5825634648223,89.45967612634279L775.7086734298748,89.45967612634279L779.8347833949273,93.6283469616803L783.9608933599798,94.22387136672852L788.0870033250325,94.67051467051469L792.213113290085,97.79701779701779L796.3392232551374,92.23879001656779L800.4653332201899,97.79701779701779L804.5914431852425,95.01790390679281L808.717553150295,95.01790390679281L812.8436631153476,97.79701779701779L816.9697730804,97.79701779701779L821.0958830454526,97.79701779701779L825.2219930105051,89.45967612634277L829.3481029755576,86.6805622361178L833.4742129406101,82.78980278980278L837.6003229056628,82.78980278980278L841.7264328707153,81.1223344556678L845.8525428357677,81.88027460754734L849.9786528008203,85.29100529100529L854.1047627658728,89.45967612634277L858.2308727309253,88.17700817700818L862.3569826959779,88.17700817700818L866.4830926610305,87.37534070867403L870.609202626083,85.29100529100529L874.7353125911354,83.20666987333654L878.8614225561879,83.20666987333654L882.9875325212405,84.15409506318596L887.1136424862931,83.20666987333652L891.2397524513456,86.25300625300626L895.365862416398,83.20666987333654L899.4919723814506,81.1223344556678L903.6180823465031,81.1223344556678L907.7441923115556,83.20666987333652L911.8703022766081,81.717858860716L915.9964122416608,83.50443207586065L920.1225222067133,83.50443207586066L924.2486321717657,83.50443207586065L928.3747421368182,81.717858860716L932.5008521018708,79.93128564557138L936.6269620669233,81.1223344556678L940.7530720319759,81.1223344556678L944.8791819970284,82.78980278980278L949.005291962081,82.78980278980278L953.1314019271334,81.12233445566778L957.2575118921859,82.16450216450215L961.3836218572384,82.16450216450215L965.5097318222911,82.16450216450215L969.6358417873436,81.12233445566778L973.761951752396,81.1223344556678L977.8880617174485,82.78980278980278L982.0141716825011,84.4572711239378L986.1402816475536,83.50443207586065L990.2663916126062,82.78980278980279L994.3925015776587,85.29100529100529L998.5186115427113,86.25300625300625L1002.6447215077637,86.25300625300625L1006.7708314728162,86.25300625300625L1010.8969414378687,87.07757850614995L1015.0230514029214,87.37534070867403L1019.1491613679739,88.70173597446325L1023.2752713330264,87.37534070867403L1027.4013812980788,86.4279155188246L1031.5274912631314,87.37534070867403L1035.653601228184,90.1010101010101L1039.7797111932364,88.70173597446325L1043.905821158289,88.70173597446325L1048.0319311233416,88.70173597446325L1052.158041088394,88.70173597446325L1056.2841510534465,87.79220779220779L1060.410261018499,87.79220779220779" fill="none" stroke="#785f43" stroke-width="2" opacity="1"></path><path class="path" d="M0,110.3030303030303L4.1261099650525255,110.1362834696168L8.252219930105051,110.1362834696168L12.378329895157577,110.1362834696168L16.504439860210102,109.96502996502996L20.63054982526263,109.96502996502996L24.756659790315155,109.96502996502996L28.88276975536768,109.96502996502996L33.008879720420204,109.96502996502996L37.13498968547273,109.96502996502996L41.26109965052526,109.96502996502996L45.38720961557778,109.96502996502996L49.51331958063031,109.96502996502996L53.63942954568283,109.96502996502996L57.76553951073536,109.96502996502996L61.89164947578789,109.96502996502996L66.01775944084041,109.96502996502996L70.14386940589294,109.96502996502996L74.26997937094546,109.96502996502996L78.39608933599798,109.96502996502996L82.52219930105052,109.96502996502996L86.64830926610304,109.96502996502996L90.77441923115556,109.96502996502996L94.9005291962081,109.78908458360513L99.02663916126062,109.96502996502996L103.15274912631314,109.96502996502996L107.27885909136566,109.96502996502996L111.4049690564182,109.96502996502996L115.53107902147072,109.96502996502996L119.65718898652324,109.96502996502996L123.78329895157577,109.78908458360513L127.9094089166283,109.60825183047405L132.03551888168082,109.42232519697308L136.16162884673335,109.42232519697308L140.28773881178589,109.42232519697308L144.4138487768384,109.42232519697308L148.53995874189093,109.42232519697308L152.66606870694346,109.42232519697308L156.79217867199597,109.23108637394351L160.9182886370485,109.23108637394351L165.04439860210104,109.23108637394351L169.17050856715355,109.23108637394351L173.29661853220608,109.42232519697308L177.42272849725862,109.60825183047405L181.54883846231112,109.60825183047405L185.67494842736366,109.42232519697308L189.8010583924162,109.42232519697308L193.9271683574687,109.42232519697308L198.05327832252124,109.42232519697308L202.17938828757374,109.60825183047405L206.30549825262628,109.60825183047405L210.43160821767881,109.78908458360513L214.55771818273132,109.96502996502996L218.68382814778386,109.96502996502996L222.8099381128364,109.78908458360513L226.9360480778889,109.78908458360513L231.06215804294143,109.78908458360513L235.18826800799397,109.78908458360513L239.31437797304648,109.96502996502996L243.440487938099,109.96502996502996L247.56659790315155,109.96502996502996L251.69270786820405,109.96502996502996L255.8188178332566,109.96502996502996L259.9449277983091,109.96502996502996L264.07103776336163,109.96502996502996L268.19714772841417,109.96502996502996L272.3232576934667,110.1362834696168L276.44936765851924,110.1362834696168L280.57547762357177,110.1362834696168L284.70158758862425,110.1362834696168L288.8276975536768,110.1362834696168L292.9538075187293,110.1362834696168L297.07991748378186,110.1362834696168L301.20602744883433,110.1362834696168L305.3321374138869,110.1362834696168L309.4582473789394,110.3030303030303L313.58435734399194,110.3030303030303L317.7104673090445,110.3030303030303L321.836577274097,110.3030303030303L325.9626872391495,110.3030303030303L330.0887972042021,110.3030303030303L334.21490716925456,110.3030303030303L338.3410171343071,110.3030303030303L342.46712709935963,110.3030303030303L346.59323706441216,110.3030303030303L350.71934702946464,110.3030303030303L354.84545699451724,110.3030303030303L358.9715669595697,110.3030303030303L363.09767692462225,110.3030303030303L367.2237868896748,110.3030303030303L371.3498968547273,110.1362834696168L375.4760068197798,110.1362834696168L379.6021167848324,110.1362834696168L383.72822674988487,110.1362834696168L387.8543367149374,110.12688928181885L391.9804466799899,110.1362834696168L396.1065566450425,110.1362834696168L400.23266661009495,110.1362834696168L404.3587765751475,110.1362834696168L408.4848865402,109.96502996502996L412.61099650525256,109.78908458360513L416.73710647030504,109.60825183047405L420.86321643535763,109.60825183047405L424.98932640041016,109.60825183047405L429.11543636546264,109.56738250855898L433.24154633051523,109.60825183047405L437.3676562955677,109.42232519697308L441.49376626062025,109.36974578765624L445.6198762256728,109.42232519697308L449.7459861907253,109.42232519697308L453.8720961557778,109.42232519697308L457.9982061208304,109.60825183047405L462.12431608588287,109.60825183047405L466.2504260509354,109.60825183047405L470.37653601598794,109.60825183047405L474.5026459810405,109.60825183047405L478.62875594609295,109.60825183047405L482.75486591114554,109.60825183047405L486.880975876198,109.60825183047405L491.00708584125056,109.78908458360513L495.1331958063031,109.96502996502996L499.2593057713556,110.1362834696168L503.3854157364081,110.1362834696168L507.5115257014607,110.1362834696168L511.6376356665132,109.96502996502996L515.7637456315657,109.96502996502996L519.8898555966182,109.96502996502996L524.0159655616708,110.1362834696168L528.1420755267233,110.1362834696168L532.2681854917759,110.1362834696168L536.3942954568283,110.1362834696168L540.5204054218808,109.96502996502996L544.6465153869334,109.96502996502996L548.7726253519859,109.96502996502996L552.8987353170385,109.96502996502996L557.024845282091,109.96502996502996L561.1509552471435,109.96502996502996L565.277065212196,109.96502996502996L569.4031751772485,109.96502996502996L573.529285142301,109.96502996502996L577.6553951073536,109.96502996502996L581.7815050724062,109.96502996502996L585.9076150374586,109.96502996502996L590.0337250025111,109.96502996502996L594.1598349675637,110.1362834696168L598.2859449326162,110.1362834696168L602.4120548976687,110.1362834696168L606.5381648627213,110.1362834696168L610.6642748277739,110.1362834696168L614.7903847928263,110.1362834696168L618.9164947578788,110.1362834696168L623.0426047229313,110.3030303030303L627.1687146879839,110.3030303030303L631.2948246530365,110.3030303030303L635.420934618089,110.3030303030303L639.5470445831415,110.3030303030303L643.673154548194,110.3030303030303L647.7992645132465,110.3030303030303L651.925374478299,110.3030303030303L656.0514844433517,110.3030303030303L660.1775944084042,110.3030303030303L664.3037043734566,110.3030303030303L668.4298143385091,110.3030303030303L672.5559243035617,110.3030303030303L676.6820342686142,110.3030303030303L680.8081442336667,110.3030303030303L684.9342541987193,110.3030303030303L689.0603641637719,110.1362834696168L693.1864741288243,110.1362834696168L697.3125840938768,110.1362834696168L701.4386940589293,110.1362834696168L705.5648040239819,110.1362834696168L709.6909139890345,110.1362834696168L713.817023954087,110.1362834696168L717.9431339191394,110.1362834696168L722.069243884192,110.1362834696168L726.1953538492445,110.1362834696168L730.321463814297,110.1362834696168L734.4475737793496,110.1362834696168L738.5736837444022,110.1362834696168L742.6997937094546,110.1362834696168L746.8259036745071,110.1362834696168L750.9520136395596,110.1362834696168L755.0781236046122,110.1362834696168L759.2042335696648,110.1362834696168L763.3303435347173,110.1362834696168L767.4564534997697,110.1362834696168L771.5825634648223,110.1362834696168L775.7086734298748,110.3030303030303L779.8347833949273,110.3030303030303L783.9608933599798,110.3030303030303L788.0870033250325,110.3030303030303L792.213113290085,110.3030303030303L796.3392232551374,110.3030303030303L800.4653332201899,110.3030303030303L804.5914431852425,110.3030303030303L808.717553150295,110.3030303030303L812.8436631153476,110.3030303030303L816.9697730804,110.3030303030303L821.0958830454526,110.3030303030303L825.2219930105051,110.3030303030303L829.3481029755576,110.3030303030303L833.4742129406101,110.3030303030303L837.6003229056628,110.3030303030303L841.7264328707153,110.3030303030303L845.8525428357677,110.3030303030303L849.9786528008203,110.3030303030303L854.1047627658728,110.3030303030303L858.2308727309253,110.3030303030303L862.3569826959779,110.1362834696168L866.4830926610305,110.1362834696168L870.609202626083,110.1362834696168L874.7353125911354,110.1362834696168L878.8614225561879,110.1362834696168L882.9875325212405,110.1362834696168L887.1136424862931,110.1362834696168L891.2397524513456,110.1362834696168L895.365862416398,110.1362834696168L899.4919723814506,110.1362834696168L903.6180823465031,110.1362834696168L907.7441923115556,110.1362834696168L911.8703022766081,110.1362834696168L915.9964122416608,110.1362834696168L920.1225222067133,110.1362834696168L924.2486321717657,110.1362834696168L928.3747421368182,110.1362834696168L932.5008521018708,110.1362834696168L936.6269620669233,110.1362834696168L940.7530720319759,110.1362834696168L944.8791819970284,110.1362834696168L949.005291962081,110.3030303030303L953.1314019271334,110.3030303030303L957.2575118921859,110.1362834696168L961.3836218572384,110.1362834696168L965.5097318222911,110.1362834696168L969.6358417873436,110.1362834696168L973.761951752396,110.1362834696168L977.8880617174485,110.1362834696168L982.0141716825011,110.1362834696168L986.1402816475536,110.1362834696168L990.2663916126062,110.1362834696168L994.3925015776587,110.1362834696168L998.5186115427113,110.1362834696168L1002.6447215077637,110.1362834696168L1006.7708314728162,110.1362834696168L1010.8969414378687,110.1362834696168L1015.0230514029214,110.1362834696168L1019.1491613679739,110.1362834696168L1023.2752713330264,110.1362834696168L1027.4013812980788,110.1362834696168L1031.5274912631314,110.1362834696168L1035.653601228184,110.1362834696168L1039.7797111932364,110.3030303030303L1043.905821158289,110.3030303030303L1048.0319311233416,110.3030303030303L1052.158041088394,110.3030303030303L1056.2841510534465,110.3030303030303L1060.410261018499,110.3030303030303" fill="none" stroke="#858772" stroke-width="2" opacity="1"></path><path class="stroke"></path><path class="stroke"></path><path class="stroke"></path><path class="stroke"></path><path class="stroke"></path><path class="stroke"></path><path class="stroke"></path><g class="y_grid"><g class="tick" transform="translate(0,122.80904280904281)" data-y-value="" style="opacity: 1;"><line x2="1061" y2="0"></line><text dy=".32em" x="1064" y="0" style="text-anchor: start;"></text></g><g class="tick" transform="translate(0,22.760942760942772)" data-y-value="0.02" style="opacity: 1;"><line x2="1061" y2="0"></line><text dy=".32em" x="1064" y="0" style="text-anchor: start;">0.02</text></g><path class="domain" d="M1061,0H0V130H1061"></path></g></svg>
